G04 #@! TF.FileFunction,Other,Fab,Top*
%FSLAX46Y46*%
G04 Gerber Fmt 4.6, Leading zero omitted, Abs format (unit mm)*
G04 Created by KiCad (PCBNEW 4.0.6) date Sat Mar 10 18:53:01 2018*
%MOMM*%
%LPD*%
G01*
G04 APERTURE LIST*
%ADD10C,0.020000*%
%ADD11C,0.100000*%
%ADD12C,0.150000*%
%ADD13C,0.000200*%
G04 APERTURE END LIST*
D10*
D11*
X128466900Y-165811300D02*
X129266900Y-165811300D01*
X128466900Y-167411300D02*
X128466900Y-165811300D01*
X129266900Y-167411300D02*
X128466900Y-167411300D01*
X129266900Y-165811300D02*
X129266900Y-167411300D01*
X127400000Y-170575000D02*
X127400000Y-169775000D01*
X129000000Y-170575000D02*
X127400000Y-170575000D01*
X129000000Y-169775000D02*
X129000000Y-170575000D01*
X127400000Y-169775000D02*
X129000000Y-169775000D01*
X123107400Y-165848500D02*
X122307400Y-165848500D01*
X123107400Y-164248500D02*
X123107400Y-165848500D01*
X122307400Y-164248500D02*
X123107400Y-164248500D01*
X122307400Y-165848500D02*
X122307400Y-164248500D01*
X122745400Y-171024600D02*
X122745400Y-171824600D01*
X121145400Y-171024600D02*
X122745400Y-171024600D01*
X121145400Y-171824600D02*
X121145400Y-171024600D01*
X122745400Y-171824600D02*
X121145400Y-171824600D01*
X215525000Y-137300000D02*
X214725000Y-137300000D01*
X215525000Y-135700000D02*
X215525000Y-137300000D01*
X214725000Y-135700000D02*
X215525000Y-135700000D01*
X214725000Y-137300000D02*
X214725000Y-135700000D01*
D12*
X125388900Y-171446300D02*
X127388900Y-171446300D01*
X127388900Y-171446300D02*
X127388900Y-174446300D01*
X127388900Y-174446300D02*
X124388900Y-174446300D01*
X124388900Y-174446300D02*
X124388900Y-172446300D01*
X124388900Y-172446300D02*
X125388900Y-171446300D01*
X125268100Y-164362000D02*
X127268100Y-164362000D01*
X127268100Y-164362000D02*
X127268100Y-167362000D01*
X127268100Y-167362000D02*
X124268100Y-167362000D01*
X124268100Y-167362000D02*
X124268100Y-165362000D01*
X124268100Y-165362000D02*
X125268100Y-164362000D01*
D11*
X149530000Y-145715000D02*
X149530000Y-146985000D01*
X149530000Y-146985000D02*
X152070000Y-146985000D01*
X152070000Y-146985000D02*
X152070000Y-145715000D01*
X152070000Y-145715000D02*
X149530000Y-145715000D01*
X132900000Y-161450000D02*
X132900000Y-156650000D01*
X132900000Y-156650000D02*
X128300000Y-156650000D01*
X128300000Y-156650000D02*
X128300000Y-161450000D01*
X128300000Y-161450000D02*
X132900000Y-161450000D01*
X132900000Y-161070000D02*
X132900000Y-159290000D01*
X132900000Y-159290000D02*
X132900000Y-159290000D01*
X132900000Y-159290000D02*
X132900000Y-161070000D01*
X132900000Y-161070000D02*
X132900000Y-161070000D01*
X132900000Y-160180000D02*
X132900000Y-160180000D01*
X170000000Y-173200000D02*
X184000000Y-173200000D01*
X184000000Y-173200000D02*
X184000000Y-171200000D01*
X184000000Y-171200000D02*
X170000000Y-171200000D01*
X170000000Y-171200000D02*
X170000000Y-173200000D01*
X106630000Y-171080000D02*
X106630000Y-176160000D01*
X106630000Y-176160000D02*
X109170000Y-176160000D01*
X109170000Y-176160000D02*
X109170000Y-171080000D01*
X109170000Y-171080000D02*
X106630000Y-171080000D01*
X106630000Y-164630000D02*
X106630000Y-169710000D01*
X106630000Y-169710000D02*
X109170000Y-169710000D01*
X109170000Y-169710000D02*
X109170000Y-164630000D01*
X109170000Y-164630000D02*
X106630000Y-164630000D01*
X125405000Y-131220000D02*
X130485000Y-131220000D01*
X130485000Y-131220000D02*
X130485000Y-128680000D01*
X130485000Y-128680000D02*
X125405000Y-128680000D01*
X125405000Y-128680000D02*
X125405000Y-131220000D01*
X221322900Y-140423900D02*
X216242900Y-140423900D01*
X216242900Y-140423900D02*
X216242900Y-142963900D01*
X216242900Y-142963900D02*
X221322900Y-142963900D01*
X221322900Y-142963900D02*
X221322900Y-140423900D01*
X173270000Y-176485000D02*
X173270000Y-173945000D01*
X173270000Y-173945000D02*
X170730000Y-173945000D01*
X170730000Y-173945000D02*
X170730000Y-176485000D01*
X170730000Y-176485000D02*
X173270000Y-176485000D01*
X151439880Y-153776680D02*
X153979880Y-153776680D01*
X153979880Y-153776680D02*
X153979880Y-151236680D01*
X153979880Y-151236680D02*
X151439880Y-151236680D01*
X151439880Y-151236680D02*
X151439880Y-153776680D01*
X125003560Y-153715720D02*
X127543560Y-153715720D01*
X127543560Y-153715720D02*
X127543560Y-151175720D01*
X127543560Y-151175720D02*
X125003560Y-151175720D01*
X125003560Y-151175720D02*
X125003560Y-153715720D01*
D13*
X143225500Y-140293740D02*
G75*
G03X143225500Y-140293740I-150000J0D01*
G01*
X142075500Y-140293740D02*
G75*
G03X142075500Y-140293740I-150000J0D01*
G01*
X143370500Y-137793740D02*
G75*
G03X143370500Y-137793740I-150000J0D01*
G01*
X142430500Y-137793740D02*
G75*
G03X142430500Y-137793740I-150000J0D01*
G01*
X141930500Y-137793740D02*
G75*
G03X141930500Y-137793740I-150000J0D01*
G01*
X142870500Y-137793740D02*
G75*
G03X142870500Y-137793740I-150000J0D01*
G01*
X141930500Y-138293740D02*
G75*
G03X141930500Y-138293740I-150000J0D01*
G01*
X141930500Y-138793740D02*
G75*
G03X141930500Y-138793740I-150000J0D01*
G01*
X141930500Y-139293740D02*
G75*
G03X141930500Y-139293740I-150000J0D01*
G01*
X141930500Y-139793740D02*
G75*
G03X141930500Y-139793740I-150000J0D01*
G01*
X143370500Y-138293740D02*
G75*
G03X143370500Y-138293740I-150000J0D01*
G01*
X143370500Y-138793740D02*
G75*
G03X143370500Y-138793740I-150000J0D01*
G01*
X143370500Y-139293740D02*
G75*
G03X143370500Y-139293740I-150000J0D01*
G01*
X143370500Y-139793740D02*
G75*
G03X143370500Y-139793740I-150000J0D01*
G01*
X142075500Y-140793740D02*
G75*
G03X142075500Y-140793740I-150000J0D01*
G01*
X142075500Y-141293740D02*
G75*
G03X142075500Y-141293740I-150000J0D01*
G01*
X142075500Y-141793740D02*
G75*
G03X142075500Y-141793740I-150000J0D01*
G01*
X142075500Y-142793740D02*
G75*
G03X142075500Y-142793740I-150000J0D01*
G01*
X142075500Y-142293740D02*
G75*
G03X142075500Y-142293740I-150000J0D01*
G01*
X143225500Y-140793740D02*
G75*
G03X143225500Y-140793740I-150000J0D01*
G01*
X143225500Y-141293740D02*
G75*
G03X143225500Y-141293740I-150000J0D01*
G01*
X143225500Y-141793740D02*
G75*
G03X143225500Y-141793740I-150000J0D01*
G01*
X143225500Y-142793740D02*
G75*
G03X143225500Y-142793740I-150000J0D01*
G01*
X143225500Y-142293740D02*
G75*
G03X143225500Y-142293740I-150000J0D01*
G01*
X142075500Y-143293740D02*
G75*
G03X142075500Y-143293740I-150000J0D01*
G01*
X143225500Y-143293740D02*
G75*
G03X143225500Y-143293740I-150000J0D01*
G01*
X182325000Y-142123740D02*
G75*
G03X182325000Y-142123740I-150000J0D01*
G01*
X181175000Y-142123740D02*
G75*
G03X181175000Y-142123740I-150000J0D01*
G01*
X182470000Y-139623740D02*
G75*
G03X182470000Y-139623740I-150000J0D01*
G01*
X181530000Y-139623740D02*
G75*
G03X181530000Y-139623740I-150000J0D01*
G01*
X181030000Y-139623740D02*
G75*
G03X181030000Y-139623740I-150000J0D01*
G01*
X181970000Y-139623740D02*
G75*
G03X181970000Y-139623740I-150000J0D01*
G01*
X181030000Y-140123740D02*
G75*
G03X181030000Y-140123740I-150000J0D01*
G01*
X181030000Y-140623740D02*
G75*
G03X181030000Y-140623740I-150000J0D01*
G01*
X181030000Y-141123740D02*
G75*
G03X181030000Y-141123740I-150000J0D01*
G01*
X181030000Y-141623740D02*
G75*
G03X181030000Y-141623740I-150000J0D01*
G01*
X182470000Y-140123740D02*
G75*
G03X182470000Y-140123740I-150000J0D01*
G01*
X182470000Y-140623740D02*
G75*
G03X182470000Y-140623740I-150000J0D01*
G01*
X182470000Y-141123740D02*
G75*
G03X182470000Y-141123740I-150000J0D01*
G01*
X182470000Y-141623740D02*
G75*
G03X182470000Y-141623740I-150000J0D01*
G01*
X181175000Y-142623740D02*
G75*
G03X181175000Y-142623740I-150000J0D01*
G01*
X181175000Y-143123740D02*
G75*
G03X181175000Y-143123740I-150000J0D01*
G01*
X181175000Y-143623740D02*
G75*
G03X181175000Y-143623740I-150000J0D01*
G01*
X181175000Y-144623740D02*
G75*
G03X181175000Y-144623740I-150000J0D01*
G01*
X181175000Y-144123740D02*
G75*
G03X181175000Y-144123740I-150000J0D01*
G01*
X182325000Y-142623740D02*
G75*
G03X182325000Y-142623740I-150000J0D01*
G01*
X182325000Y-143123740D02*
G75*
G03X182325000Y-143123740I-150000J0D01*
G01*
X182325000Y-143623740D02*
G75*
G03X182325000Y-143623740I-150000J0D01*
G01*
X182325000Y-144623740D02*
G75*
G03X182325000Y-144623740I-150000J0D01*
G01*
X182325000Y-144123740D02*
G75*
G03X182325000Y-144123740I-150000J0D01*
G01*
X181175000Y-145123740D02*
G75*
G03X181175000Y-145123740I-150000J0D01*
G01*
X182325000Y-145123740D02*
G75*
G03X182325000Y-145123740I-150000J0D01*
G01*
X198575000Y-161624740D02*
G75*
G03X198575000Y-161624740I-150000J0D01*
G01*
X199725000Y-161624740D02*
G75*
G03X199725000Y-161624740I-150000J0D01*
G01*
X198430000Y-164124740D02*
G75*
G03X198430000Y-164124740I-150000J0D01*
G01*
X199370000Y-164124740D02*
G75*
G03X199370000Y-164124740I-150000J0D01*
G01*
X199870000Y-164124740D02*
G75*
G03X199870000Y-164124740I-150000J0D01*
G01*
X198930000Y-164124740D02*
G75*
G03X198930000Y-164124740I-150000J0D01*
G01*
X199870000Y-163624740D02*
G75*
G03X199870000Y-163624740I-150000J0D01*
G01*
X199870000Y-163124740D02*
G75*
G03X199870000Y-163124740I-150000J0D01*
G01*
X199870000Y-162624740D02*
G75*
G03X199870000Y-162624740I-150000J0D01*
G01*
X199870000Y-162124740D02*
G75*
G03X199870000Y-162124740I-150000J0D01*
G01*
X198430000Y-163624740D02*
G75*
G03X198430000Y-163624740I-150000J0D01*
G01*
X198430000Y-163124740D02*
G75*
G03X198430000Y-163124740I-150000J0D01*
G01*
X198430000Y-162624740D02*
G75*
G03X198430000Y-162624740I-150000J0D01*
G01*
X198430000Y-162124740D02*
G75*
G03X198430000Y-162124740I-150000J0D01*
G01*
X199725000Y-161124740D02*
G75*
G03X199725000Y-161124740I-150000J0D01*
G01*
X199725000Y-160624740D02*
G75*
G03X199725000Y-160624740I-150000J0D01*
G01*
X199725000Y-160124740D02*
G75*
G03X199725000Y-160124740I-150000J0D01*
G01*
X199725000Y-159124740D02*
G75*
G03X199725000Y-159124740I-150000J0D01*
G01*
X199725000Y-159624740D02*
G75*
G03X199725000Y-159624740I-150000J0D01*
G01*
X198575000Y-161124740D02*
G75*
G03X198575000Y-161124740I-150000J0D01*
G01*
X198575000Y-160624740D02*
G75*
G03X198575000Y-160624740I-150000J0D01*
G01*
X198575000Y-160124740D02*
G75*
G03X198575000Y-160124740I-150000J0D01*
G01*
X198575000Y-159124740D02*
G75*
G03X198575000Y-159124740I-150000J0D01*
G01*
X198575000Y-159624740D02*
G75*
G03X198575000Y-159624740I-150000J0D01*
G01*
X199725000Y-158624740D02*
G75*
G03X199725000Y-158624740I-150000J0D01*
G01*
X198575000Y-158624740D02*
G75*
G03X198575000Y-158624740I-150000J0D01*
G01*
X142075500Y-161625000D02*
G75*
G03X142075500Y-161625000I-150000J0D01*
G01*
X143225500Y-161625000D02*
G75*
G03X143225500Y-161625000I-150000J0D01*
G01*
X141930500Y-164125000D02*
G75*
G03X141930500Y-164125000I-150000J0D01*
G01*
X142870500Y-164125000D02*
G75*
G03X142870500Y-164125000I-150000J0D01*
G01*
X143370500Y-164125000D02*
G75*
G03X143370500Y-164125000I-150000J0D01*
G01*
X142430500Y-164125000D02*
G75*
G03X142430500Y-164125000I-150000J0D01*
G01*
X143370500Y-163625000D02*
G75*
G03X143370500Y-163625000I-150000J0D01*
G01*
X143370500Y-163125000D02*
G75*
G03X143370500Y-163125000I-150000J0D01*
G01*
X143370500Y-162625000D02*
G75*
G03X143370500Y-162625000I-150000J0D01*
G01*
X143370500Y-162125000D02*
G75*
G03X143370500Y-162125000I-150000J0D01*
G01*
X141930500Y-163625000D02*
G75*
G03X141930500Y-163625000I-150000J0D01*
G01*
X141930500Y-163125000D02*
G75*
G03X141930500Y-163125000I-150000J0D01*
G01*
X141930500Y-162625000D02*
G75*
G03X141930500Y-162625000I-150000J0D01*
G01*
X141930500Y-162125000D02*
G75*
G03X141930500Y-162125000I-150000J0D01*
G01*
X143225500Y-161125000D02*
G75*
G03X143225500Y-161125000I-150000J0D01*
G01*
X143225500Y-160625000D02*
G75*
G03X143225500Y-160625000I-150000J0D01*
G01*
X143225500Y-160125000D02*
G75*
G03X143225500Y-160125000I-150000J0D01*
G01*
X143225500Y-159125000D02*
G75*
G03X143225500Y-159125000I-150000J0D01*
G01*
X143225500Y-159625000D02*
G75*
G03X143225500Y-159625000I-150000J0D01*
G01*
X142075500Y-161125000D02*
G75*
G03X142075500Y-161125000I-150000J0D01*
G01*
X142075500Y-160625000D02*
G75*
G03X142075500Y-160625000I-150000J0D01*
G01*
X142075500Y-160125000D02*
G75*
G03X142075500Y-160125000I-150000J0D01*
G01*
X142075500Y-159125000D02*
G75*
G03X142075500Y-159125000I-150000J0D01*
G01*
X142075500Y-159625000D02*
G75*
G03X142075500Y-159625000I-150000J0D01*
G01*
X143225500Y-158625000D02*
G75*
G03X143225500Y-158625000I-150000J0D01*
G01*
X142075500Y-158625000D02*
G75*
G03X142075500Y-158625000I-150000J0D01*
G01*
X199725000Y-140396000D02*
G75*
G03X199725000Y-140396000I-150000J0D01*
G01*
X198575000Y-140396000D02*
G75*
G03X198575000Y-140396000I-150000J0D01*
G01*
X199870000Y-137896000D02*
G75*
G03X199870000Y-137896000I-150000J0D01*
G01*
X198930000Y-137896000D02*
G75*
G03X198930000Y-137896000I-150000J0D01*
G01*
X198430000Y-137896000D02*
G75*
G03X198430000Y-137896000I-150000J0D01*
G01*
X199370000Y-137896000D02*
G75*
G03X199370000Y-137896000I-150000J0D01*
G01*
X198430000Y-138396000D02*
G75*
G03X198430000Y-138396000I-150000J0D01*
G01*
X198430000Y-138896000D02*
G75*
G03X198430000Y-138896000I-150000J0D01*
G01*
X198430000Y-139396000D02*
G75*
G03X198430000Y-139396000I-150000J0D01*
G01*
X198430000Y-139896000D02*
G75*
G03X198430000Y-139896000I-150000J0D01*
G01*
X199870000Y-138396000D02*
G75*
G03X199870000Y-138396000I-150000J0D01*
G01*
X199870000Y-138896000D02*
G75*
G03X199870000Y-138896000I-150000J0D01*
G01*
X199870000Y-139396000D02*
G75*
G03X199870000Y-139396000I-150000J0D01*
G01*
X199870000Y-139896000D02*
G75*
G03X199870000Y-139896000I-150000J0D01*
G01*
X198575000Y-140896000D02*
G75*
G03X198575000Y-140896000I-150000J0D01*
G01*
X198575000Y-141396000D02*
G75*
G03X198575000Y-141396000I-150000J0D01*
G01*
X198575000Y-141896000D02*
G75*
G03X198575000Y-141896000I-150000J0D01*
G01*
X198575000Y-142896000D02*
G75*
G03X198575000Y-142896000I-150000J0D01*
G01*
X198575000Y-142396000D02*
G75*
G03X198575000Y-142396000I-150000J0D01*
G01*
X199725000Y-140896000D02*
G75*
G03X199725000Y-140896000I-150000J0D01*
G01*
X199725000Y-141396000D02*
G75*
G03X199725000Y-141396000I-150000J0D01*
G01*
X199725000Y-141896000D02*
G75*
G03X199725000Y-141896000I-150000J0D01*
G01*
X199725000Y-142896000D02*
G75*
G03X199725000Y-142896000I-150000J0D01*
G01*
X199725000Y-142396000D02*
G75*
G03X199725000Y-142396000I-150000J0D01*
G01*
X198575000Y-143396000D02*
G75*
G03X198575000Y-143396000I-150000J0D01*
G01*
X199725000Y-143396000D02*
G75*
G03X199725000Y-143396000I-150000J0D01*
G01*
D11*
X139750000Y-148900000D02*
X139900000Y-148750000D01*
X139900000Y-148750000D02*
X146250000Y-148750000D01*
X146250000Y-148750000D02*
X146250000Y-153250000D01*
X146250000Y-153250000D02*
X139750000Y-153250000D01*
X139750000Y-153250000D02*
X139750000Y-148900000D01*
X158750000Y-148900000D02*
X158900000Y-148750000D01*
X158900000Y-148750000D02*
X165250000Y-148750000D01*
X165250000Y-148750000D02*
X165250000Y-153250000D01*
X165250000Y-153250000D02*
X158750000Y-153250000D01*
X158750000Y-153250000D02*
X158750000Y-148900000D01*
X106055000Y-131220000D02*
X123835000Y-131220000D01*
X123835000Y-131220000D02*
X123835000Y-128680000D01*
X123835000Y-128680000D02*
X106055000Y-128680000D01*
X106055000Y-128680000D02*
X106055000Y-131220000D01*
X135725000Y-173300000D02*
X134925000Y-173300000D01*
X135725000Y-171700000D02*
X135725000Y-173300000D01*
X134925000Y-171700000D02*
X135725000Y-171700000D01*
X134925000Y-173300000D02*
X134925000Y-171700000D01*
X129625000Y-172150000D02*
X129625000Y-176150000D01*
X129625000Y-176150000D02*
X133625000Y-176150000D01*
X133625000Y-176150000D02*
X133625000Y-172150000D01*
X133625000Y-172150000D02*
X129625000Y-172150000D01*
X132900000Y-162400000D02*
X132900000Y-163200000D01*
X131300000Y-162400000D02*
X132900000Y-162400000D01*
X131300000Y-163200000D02*
X131300000Y-162400000D01*
X132900000Y-163200000D02*
X131300000Y-163200000D01*
X216375000Y-139600000D02*
X220375000Y-139600000D01*
X220375000Y-139600000D02*
X220375000Y-135600000D01*
X220375000Y-135600000D02*
X216375000Y-135600000D01*
X216375000Y-135600000D02*
X216375000Y-139600000D01*
X129730000Y-164060000D02*
X129730000Y-168060000D01*
X129730000Y-168060000D02*
X133730000Y-168060000D01*
X133730000Y-168060000D02*
X133730000Y-164060000D01*
X133730000Y-164060000D02*
X129730000Y-164060000D01*
M02*
